<svg width="71" height="44" viewBox="0 0 71 44" fill="none" xmlns="http://www.w3.org/2000/svg">
<g opacity="0.5">
<path fill-rule="evenodd" clip-rule="evenodd" d="M26.5 12C25.9477 12 25.5 12.4477 25.5 13V20C25.5 20.5523 25.9477 21 26.5 21H33.5C34.0523 21 34.5 20.5523 34.5 20V13C34.5 12.4477 34.0523 12 33.5 12H26.5ZM26.5 23C25.9477 23 25.5 23.4477 25.5 24V31C25.5 31.5523 25.9477 32 26.5 32H33.5C34.0523 32 34.5 31.5523 34.5 31V24C34.5 23.4477 34.0523 23 33.5 23H26.5ZM36.5 13C36.5 12.4477 36.9477 12 37.5 12H44.5C45.0523 12 45.5 12.4477 45.5 13V20C45.5 20.5523 45.0523 21 44.5 21H37.5C36.9477 21 36.5 20.5523 36.5 20V13ZM37.5 23C36.9477 23 36.5 23.4477 36.5 24V31C36.5 31.5523 36.9477 32 37.5 32H44.5C45.0523 32 45.5 31.5523 45.5 31V24C45.5 23.4477 45.0523 23 44.5 23H37.5Z" fill="#171717"/>
</g>
</svg>
