<svg width="71" height="44" viewBox="0 0 71 44" fill="none" xmlns="http://www.w3.org/2000/svg">
<g opacity="0.5">
<path fill-rule="evenodd" clip-rule="evenodd" d="M25.502 13C24.9497 13 24.502 13.4477 24.502 14V16C24.502 16.5523 24.9497 17 25.502 17H27.502C28.0542 17 28.502 16.5523 28.502 16V14C28.502 13.4477 28.0542 13 27.502 13H25.502ZM31.498 13C30.9458 13 30.498 13.4477 30.498 14V16C30.498 16.5523 30.9458 17 31.498 17H45.498C46.0503 17 46.498 16.5523 46.498 16V14C46.498 13.4477 46.0503 13 45.498 13H31.498ZM31.498 20C30.9458 20 30.498 20.4477 30.498 21V23C30.498 23.5523 30.9458 24 31.498 24H45.498C46.0503 24 46.498 23.5523 46.498 23V21C46.498 20.4477 46.0503 20 45.498 20H31.498ZM30.498 28C30.498 27.4477 30.9458 27 31.498 27H45.498C46.0503 27 46.498 27.4477 46.498 28V30C46.498 30.5523 46.0503 31 45.498 31H31.498C30.9458 31 30.498 30.5523 30.498 30V28ZM24.5098 21C24.5098 20.4477 24.9575 20 25.5098 20H27.5098C28.0621 20 28.5098 20.4477 28.5098 21V23C28.5098 23.5523 28.0621 24 27.5098 24H25.5098C24.9575 24 24.5098 23.5523 24.5098 23V21ZM25.5254 27C24.9731 27 24.5254 27.4477 24.5254 28V30C24.5254 30.5523 24.9731 31 25.5254 31H27.5254C28.0777 31 28.5254 30.5523 28.5254 30V28C28.5254 27.4477 28.0777 27 27.5254 27H25.5254Z" fill="#171717"/>
</g>
</svg>
