<svg width="20" height="16" viewBox="0 0 20 16" fill="none" xmlns="http://www.w3.org/2000/svg">
<path d="M2.82513 15.7903C1.0004 15.7903 0 14.7979 0 12.9812V4.55382C0 2.7451 1.0004 1.7447 2.82513 1.7447H4.68187C5.30612 1.7447 5.53021 1.65666 5.95438 1.2485L6.57863 0.62425C7.02681 0.192077 7.45898 0 8.2593 0H11.7167C12.517 0 12.9492 0.192077 13.3974 0.62425L14.0216 1.2485C14.4458 1.66467 14.6699 1.7447 15.2861 1.7447H17.1749C18.9996 1.7447 20 2.7451 20 4.55382V12.9812C20 14.7979 18.9996 15.7903 17.1749 15.7903H2.82513ZM10.004 13.0532C12.3569 13.0532 14.2457 11.1565 14.2457 8.79552C14.2457 6.43457 12.3569 4.54582 10.004 4.54582C7.65106 4.54582 5.76231 6.43457 5.76231 8.79552C5.76231 11.1565 7.65106 13.0532 10.004 13.0532ZM14.7259 5.85834C14.7259 6.4906 15.2381 6.98679 15.8543 6.97879C16.4626 6.97879 16.9748 6.48259 16.9748 5.85834C16.9748 5.2581 16.4626 4.7459 15.8543 4.7459C15.2461 4.7459 14.7259 5.2581 14.7259 5.85834ZM10.004 11.2445C8.65946 11.2445 7.56303 10.1481 7.56303 8.79552C7.56303 7.44298 8.65146 6.35454 10.004 6.35454C11.3565 6.35454 12.437 7.44298 12.437 8.79552C12.437 10.1481 11.3565 11.2445 10.004 11.2445Z" fill="#171717"/>
</svg>
